# xmcd
#
# Track frame offsets: 
#        150
#        13515
#        23408
#        40223
#        57159
#        69417
#        79879
#        92841
#        107502
#        121268
#        131216
#        145766
#        158581
#        177169
#        192433
#
# Disc length: 2707 seconds
#
# Revision: 0
# Processed by: cddbd v1.5.2PL0 Copyright (c) Steve Scherf et al.
# Submitted via: ExactAudioCopy v0.99pb5
#
DISCID=bd0a910f
DTITLE=George Jones - The Music Of George Jones: The Epic Years [CD
DTITLE=3) Collabarations
DYEAR=2010
DGENRE=Country
TTITLE0=We're Gonna Hold On (with Tammy Wynette)
TTITLE1=I Gotta Get Drunk (with Willie Nelson)
TTITLE2=Night Life (with Waylon Jennings)
TTITLE3=Bartender's Blues (with James Taylor)
TTITLE4=You Can't Do Wrong And Get By (wit Ricky Scaggs)
TTITLE5=Maybellene (with Johnny Paycheck)
TTITLE6=Same Ole Me (with The Oak Ridge Boys)
TTITLE7=Yesterday's Wine (with Merl Haggard)
TTITLE8=Golden Ring (with Tammy Wynette)
TTITLE9=We Didn't See A Thing (with Ray Charles and Chet Atkins)
TTITLE10=You Can Have Her (with Johnny Paycheck)
TTITLE11=Don't Cry Darlin' (with David Allen Coe)
TTITLE12=You Don't Seem To Miss Me (with Patty Loveless)
TTITLE13=Making Believe (with Merl Haggard)
TTITLE14=Near You (with Tammy Wynette)
EXTD=
EXTT0=
EXTT1=
EXTT2=
EXTT3=
EXTT4=
EXTT5=
EXTT6=
EXTT7=
EXTT8=
EXTT9=
EXTT10=
EXTT11=
EXTT12=
EXTT13=
EXTT14=
PLAYORDER=
